<?xml version="1.0" encoding="iso-8859-1"?>
<!-- Generator: Adobe Illustrator 19.0.0, SVG Export Plug-In . SVG Version: 6.00 Build 0)  -->
<svg version="1.1" id="Layer_1" xmlns="http://www.w3.org/2000/svg" xmlns:xlink="http://www.w3.org/1999/xlink" x="0px" y="0px"
	 viewBox="0 0 475.1 475.1" style="enable-background:new 0 0 475.1 475.1;" xml:space="preserve">
<g transform="translate(0 -540.36)">
	<g>
		<g>
			<path d="M146,756.118c2.5-3.1,1.9-7.8-1.3-10.4v0c-3.3-2.6-8-2-10.5,1.3c-9.9,12.6-25.7,17.3-39.3,11.8
				c-7.9-3.4-14.4-9.7-18.7-17.5h37.5c4.1,0,7.5-3.4,7.5-7.5s-3.4-7.5-7.5-7.5H71.3c-0.3-1.7-0.4-3.4-0.5-5.1c0-1.1,0-2.2,0.1-3.3
				h50.5c4.1,0,7.5-3.4,7.5-7.5s-3.4-7.5-7.5-7.5H74.1c3.8-9.7,10.6-17.5,19.4-21.5c0,0,0.1,0,0.1-0.1c13.2-6.3,28.9-2.4,39.1,9.7
				c2.7,3.2,7.4,3.6,10.6,0.9c3.2-2.7,3.6-7.4,0.9-10.6c-14.6-17.5-37.5-23-57-13.7c-14,6.4-24.3,19.4-28.9,35.1h-9
				c-4.1,0-7.5,3.4-7.5,7.5s3.4,7.5,7.5,7.5h6.6c-0.1,1.1-0.1,2.3-0.1,3.4c0,0.1,0,0.2,0,0.3c0.1,1.6,0.2,3.1,0.4,4.7h-7.6
				c-4.1,0-7.5,3.4-7.5,7.5s3.4,7.5,7.5,7.5h11.2c5.4,14.1,15.8,25.6,29.2,31.3h0.1c5.7,2.3,11.7,3.5,17.6,3.5
				C121.4,775.918,135.9,768.918,146,756.118z"/>
			<path d="M402.1,875.018c-2.2-13.7-14.7-24.1-29.1-24.1h-0.8c-6.9,0-12.7-4.8-14.3-11.7c-0.9-7.4,2.5-14.2,8.8-17.5
				c6.5-2.3,13.7,0.1,18,6.1c2.4,3.4,7.1,4.1,10.5,1.7c3.4-2.4,4.1-7.1,1.7-10.5c-4.3-6-10.2-10.1-16.7-12v-18.7
				c0-4.1-3.4-7.5-7.5-7.5c-4.1,0-7.5,3.4-7.5,7.5v18.2c-1.4,0.3-2.9,0.7-4.3,1.3c-0.2,0.1-0.4,0.2-0.7,0.3
				c-12.3,6.2-19.2,19.6-17.2,33.5c0,0.2,0.1,0.3,0.1,0.5c3,14,14.9,23.9,29.1,23.9h0.8c7,0,13.3,5.1,14.3,11.6c0,0.1,0,0.3,0.1,0.4
				c1.6,7.4-2,14.6-8.6,17.2c-0.1,0-0.1,0.1-0.2,0.1c-6.3,2.6-13.2,0.3-17.2-5.8c-2.3-3.5-6.9-4.4-10.4-2.1
				c-3.5,2.3-4.4,6.9-2.1,10.4c4.1,6.2,9.9,10.4,16.3,12.3v18.6c0,4.1,3.4,7.5,7.5,7.5c4.1,0,7.5-3.4,7.5-7.5v-18.2
				c1.4-0.3,2.7-0.8,4.1-1.3C397.7,903.818,405.1,889.518,402.1,875.018L402.1,875.018z"/>
			<path d="M443.9,784.518L443.9,784.518c1.4-39.7-8.6-78.6-28.8-112.7c-20.3-34.2-49.9-61.7-85.5-79.7
				c-35.9-17.9-75.8-25-115.4-20.5c-39.2,4.4-76,19.9-106.6,44.8c-1.8-0.1-3.7-0.1-5.5-0.1c-56.3,0-102.1,46.4-102.1,103.4
				c0,29.3,12.3,55.7,31.9,74.4c2.5,34.7,13.9,68.5,33.1,97.8c19.3,29.4,46,53.6,77.2,69.9c30.4,15.8,63.2,23.7,95.8,23.7
				c35.5,0,70.9-9.3,102.8-27.8c9.9,3.2,20.4,5,31.4,5c56.7,0,102.9-46.7,102.9-104.2C474.9,829.518,463,803.318,443.9,784.518z
				 M14.9,719.617c0-48.7,39.1-88.4,87.1-88.4c48.5,0,87.9,39.6,87.9,88.4c0,48.3-39.4,87.6-87.9,87.6
				C54,807.217,14.9,767.917,14.9,719.617z M148.9,948.418L148.9,948.418c-54.3-28.3-91.9-81.7-100.7-141.6
				c15.6,9.8,34.1,15.4,53.8,15.4c27.6,0,53.4-10.6,72.8-29.9c19.4-19.3,30.1-45.1,30.1-72.7c0-47.9-32.7-88.4-76.8-100
				c56.8-39.6,131.6-45.5,194.7-14.1c63.6,32,104.3,96.5,106.1,166.8c-16.3-10.9-35.9-17.3-57-17.3c-56.7,0-102.9,46.4-102.9,103.4
				c0,39.5,21.9,74,54,91.6C268.4,977.617,204.3,977.218,148.9,948.418z M372,947.517c-48.5,0-87.9-40-87.9-89.2
				c0-48.7,39.4-88.4,87.9-88.4s87.9,39.6,87.9,88.4C459.9,907.517,420.5,947.517,372,947.517z"/>
		</g>
	</g>
</g>
<g>
</g>
<g>
</g>
<g>
</g>
<g>
</g>
<g>
</g>
<g>
</g>
<g>
</g>
<g>
</g>
<g>
</g>
<g>
</g>
<g>
</g>
<g>
</g>
<g>
</g>
<g>
</g>
<g>
</g>
</svg>
